<?xml version="1.0" encoding="UTF-8" standalone="no"?>
<svg
   viewBox="0 0 512 512"
   version="1.1"
   id="svg4"
   sodipodi:docname="black-mountain-lodge-logo.svg"
   inkscape:version="1.1.1 (3bf5ae0d25, 2021-09-20)"
   xmlns:inkscape="http://www.inkscape.org/namespaces/inkscape"
   xmlns:sodipodi="http://sodipodi.sourceforge.net/DTD/sodipodi-0.dtd"
   xmlns="http://www.w3.org/2000/svg"
   xmlns:svg="http://www.w3.org/2000/svg">
  <defs
     id="defs8" />
  <sodipodi:namedview
     id="namedview6"
     pagecolor="#ffffff"
     bordercolor="#666666"
     borderopacity="1.0"
     inkscape:pageshadow="2"
     inkscape:pageopacity="0.0"
     inkscape:pagecheckerboard="0"
     showgrid="false"
     inkscape:zoom="1.6171875"
     inkscape:cx="256.30918"
     inkscape:cy="256.30918"
     inkscape:window-width="1920"
     inkscape:window-height="991"
     inkscape:window-x="-9"
     inkscape:window-y="-9"
     inkscape:window-maximized="1"
     inkscape:current-layer="svg4" />
  <!--! Font Awesome Pro 6.0.0 by @fontawesome - https://fontawesome.com License - https://fontawesome.com/license (Commercial License) Copyright 2022 Fonticons, Inc. -->
  <path
     id="path2"
     style="fill:#808080;stroke:#000000;stroke-width:0.67644;stroke-opacity:1"
     d="m 186.79081,88.910227 c -5.55968,0 -11.11908,3.168639 -14.18995,9.507233 L 41.07639,369.77892 c -6.548422,13.51561 -6.925551,30.60217 -0.981861,44.59909 5.852319,13.08086 16.961034,22.31731 28.979239,22.31731 H 304.48739 c 12.0182,0 23.1286,-8.56225 28.98742,-22.33403 1.78845,-4.24282 2.93255,-8.77989 3.57357,-13.40377 h 113.96756 c 7.96889,0 15.33515,-5.48194 19.21994,-14.30056 3.91214,-8.96278 3.67743,-19.89924 -0.66072,-28.54885 L 382.38379,184.34413 c -4.07236,-8.11771 -14.74661,-8.11771 -18.81901,0 L 302.03069,306.9472 200.98075,98.41746 c -3.07086,-6.338594 -8.63027,-9.507233 -14.18994,-9.507233 z m -0.0163,61.947483 42.32028,87.10149 h -42.32028 l -28.29193,49.68507 -18.15217,-40.91158 z m 186.18962,67.06691 28.06079,55.77447 h -28.06079 l -18.75969,31.81409 -12.03804,-26.19714 z" />
</svg>
