<?xml version="1.0" encoding="UTF-8" standalone="no"?>
<svg
   aria-hidden="true"
   focusable="false"
   data-prefix="fas"
   data-icon="info-circle"
   class="svg-inline--fa fa-info-circle fa-w-16"
   role="img"
   viewBox="0 0 512 512"
   version="1.1"
   id="svg4"
   sodipodi:docname="info.svg"
   inkscape:version="1.1.1 (3bf5ae0d25, 2021-09-20)"
   xmlns:inkscape="http://www.inkscape.org/namespaces/inkscape"
   xmlns:sodipodi="http://sodipodi.sourceforge.net/DTD/sodipodi-0.dtd"
   xmlns="http://www.w3.org/2000/svg"
   xmlns:svg="http://www.w3.org/2000/svg">
  <defs
     id="defs8" />
  <sodipodi:namedview
     id="namedview6"
     pagecolor="#ffffff"
     bordercolor="#666666"
     borderopacity="1.0"
     inkscape:pageshadow="2"
     inkscape:pageopacity="0.0"
     inkscape:pagecheckerboard="0"
     showgrid="false"
     inkscape:zoom="1.1076164"
     inkscape:cx="361.58728"
     inkscape:cy="259.5664"
     inkscape:window-width="1920"
     inkscape:window-height="991"
     inkscape:window-x="-9"
     inkscape:window-y="-9"
     inkscape:window-maximized="1"
     inkscape:current-layer="svg4" />
  <g
     id="g845">
    <path
       style="fill:#0089ff;fill-opacity:1;fill-rule:evenodd;stroke:#0089ff;stroke-width:1;stroke-linejoin:round;stroke-miterlimit:4;stroke-dasharray:none"
       d="m 253.29263,10.242847 c -18.63233,-0.07886 -37.31421,1.406675 -55.40026,6.094626 -26.69255,5.966926 -51.91297,17.28638 -75.24792,31.394528 C 69.340641,81.2497 29.412921,135.52683 14.205631,196.71424 c -4.7083199,18.13178 -7.3262399,36.81068 -6.7688399,55.56848 -0.14736,17.88127 -0.27261,35.92192 3.8382399,53.44621 10.40602,53.17349 38.94153,102.47564 79.81218,138.04056 37.783619,33.8903 86.473819,54.75231 136.788039,60.44492 17.67701,2.17574 35.55957,0.78346 53.28271,-0.0788 57.49528,-6.17853 112.55849,-33.03597 152.32954,-75.09673 45.10727,-46.61196 70.47791,-111.64294 68.82228,-176.49022 C 501.41075,194.60662 479.13203,137.38823 440.65775,94.060805 396.9205,44.147106 332.44278,12.18148 265.86754,10.281421 c -4.19121,-0.07332 -8.38331,-0.07586 -12.57491,-0.03857 z m 1.58478,109.152113 c 1.53847,0.79698 -2.8338,0.4032 -0.33167,-0.0137 l 0.17083,-0.002 z m 13.86035,105.95761 c 4.42914,0.17602 -0.58788,0.50147 -1.9911,0.33706 -3.35264,-0.15411 1.64064,-0.42692 1.9911,-0.33706 z"
       id="path2335" />
    <g
       id="g833"
       transform="matrix(1.0303262,0,0,1.0320819,-6.4507564,-8.579365)"
       style="stroke-width:6.40029;stroke-miterlimit:4;stroke-dasharray:none">
      <path
         style="fill:#ffffff;fill-opacity:1;fill-rule:evenodd;stroke:#0089ff;stroke-width:6.40029;stroke-linejoin:round;stroke-miterlimit:4;stroke-dasharray:none;stroke-opacity:1"
         d="M 248.23363,25.47855 C 218.97727,25.41304 189.93588,32.29717 162.95052,43.368373 94.36592,72.04583 41.18672,135.51866 26.11175,208.5624 c -11.70808,53.8832 -3.60236,111.84565 23.01677,160.17477 29.1769,54.18228 80.83685,95.42054 139.88143,112.33263 23.62649,6.79406 48.36364,9.95564 72.93105,8.53304 45.1517,-1.09636 89.61658,-16.84744 126.21275,-43.2073 49.67924,-35.48279 84.35408,-91.26298 93.86207,-151.6654 3.52757,-21.22712 3.22424,-42.95085 1.38854,-64.33139 C 476.16584,166.73577 440.99024,107.01916 389.14473,69.54363 352.28677,42.644431 307.27345,26.726228 261.62526,25.523178 c -4.46348,-0.07311 -8.92774,-0.06682 -13.39163,-0.04467 z m 5.40271,102.3934 c 18.68787,-0.0389 36.5268,15.27236 38.3576,34.03595 0.3281,8.06394 0.55831,16.56409 -3.8791,23.70252 -6.99792,14.31169 -23.11171,22.70584 -38.79809,21.43574 -19.58979,-1.43699 -36.93016,-19.70227 -35.69409,-39.68833 -1.18173,-19.98071 16.24798,-37.82791 35.74822,-39.31176 1.41728,-0.13592 2.84185,-0.19332 4.26546,-0.17412 z m 21.10142,99.48062 c 5.07054,2.25166 9.55999,7.3123 8.39158,13.18182 0.10488,30.62543 0.21051,61.25085 0.31654,91.87628 6.27529,0.87774 14.1473,-1.62686 18.99946,3.61846 4.9054,5.55716 2.45273,13.63248 3.09744,20.35439 -0.57609,5.6041 1.29376,12.16488 -2.26671,17.00511 -2.5486,3.75284 -7.05595,4.57892 -11.2954,4.19709 -28.01601,0.39441 -56.06302,0.77198 -84.06756,-0.13862 -4.87708,-1.71468 -8.11194,-6.81033 -7.51986,-11.98818 0.0594,-8.47709 -0.77701,-17.09954 0.57836,-25.48601 1.67211,-5.52186 7.58347,-7.93572 12.95239,-7.33091 2.73624,-0.96848 9.42681,1.93423 8.46917,-2.6292 0,-18.94111 0,-37.88222 0,-56.82334 -7.17177,-0.15521 -17.09947,1.15249 -20.94368,-6.60145 -2.2116,-7.03048 -0.75873,-14.68636 -1.17449,-21.97167 -0.14858,-5.47359 -0.25279,-12.01792 4.94961,-15.36911 4.19438,-3.01429 9.80552,-1.1106 14.61084,-1.77551 18.29993,-0.20075 36.60168,-0.0901 54.90231,-0.11915 z"
         id="path1035" />
    </g>
  </g>
</svg>
