<?xml version="1.0" encoding="UTF-8" standalone="no"?>
<svg
   aria-hidden="true"
   focusable="false"
   data-prefix="fas"
   data-icon="map-marker-alt"
   class="svg-inline--fa fa-map-marker-alt fa-w-12"
   role="img"
   viewBox="0 0 384 512"
   version="1.1"
   id="svg4"
   sodipodi:docname="map.svg"
   inkscape:version="1.1.1 (3bf5ae0d25, 2021-09-20)"
   xmlns:inkscape="http://www.inkscape.org/namespaces/inkscape"
   xmlns:sodipodi="http://sodipodi.sourceforge.net/DTD/sodipodi-0.dtd"
   xmlns:xlink="http://www.w3.org/1999/xlink"
   xmlns="http://www.w3.org/2000/svg"
   xmlns:svg="http://www.w3.org/2000/svg">
  <defs
     id="defs8">
    <linearGradient
       id="linearGradient1190"
       inkscape:swatch="solid">
      <stop
         style="stop-color:#ffffff;stop-opacity:1;"
         offset="0"
         id="stop1188" />
    </linearGradient>
    <linearGradient
       id="linearGradient1166"
       inkscape:swatch="solid">
      <stop
         style="stop-color:#ffffff;stop-opacity:1;"
         offset="0"
         id="stop1164" />
    </linearGradient>
    <linearGradient
       id="linearGradient1146"
       inkscape:swatch="solid">
      <stop
         style="stop-color:#ffffff;stop-opacity:1;"
         offset="0"
         id="stop1144" />
    </linearGradient>
    <linearGradient
       id="linearGradient1115"
       inkscape:swatch="solid">
      <stop
         style="stop-color:#0089ff;stop-opacity:1;"
         offset="0"
         id="stop1113" />
    </linearGradient>
    <linearGradient
       inkscape:collect="always"
       xlink:href="#linearGradient1190"
       id="linearGradient1192"
       x1="-3"
       y1="255.97112"
       x2="387"
       y2="255.97112"
       gradientUnits="userSpaceOnUse"
       gradientTransform="matrix(0.92906698,0,0,0.94427575,14.576746,15.854508)" />
    <linearGradient
       inkscape:collect="always"
       xlink:href="#linearGradient1190"
       id="linearGradient1250"
       gradientUnits="userSpaceOnUse"
       gradientTransform="matrix(0.92906698,0,0,0.94427575,14.57675,15.854509)"
       x1="-3"
       y1="255.97112"
       x2="387"
       y2="255.97112" />
    <linearGradient
       inkscape:collect="always"
       xlink:href="#linearGradient1190"
       id="linearGradient1271"
       gradientUnits="userSpaceOnUse"
       gradientTransform="matrix(0.92906698,0,0,0.94427575,14.57675,15.854506)"
       x1="-3"
       y1="255.97112"
       x2="387"
       y2="255.97112" />
    <linearGradient
       inkscape:collect="always"
       xlink:href="#linearGradient1190"
       id="linearGradient1315"
       gradientUnits="userSpaceOnUse"
       gradientTransform="matrix(0.92906698,0,0,0.94427575,14.57675,15.85451)"
       x1="-3"
       y1="255.97112"
       x2="387"
       y2="255.97112" />
    <linearGradient
       inkscape:collect="always"
       xlink:href="#linearGradient1190"
       id="linearGradient1336"
       gradientUnits="userSpaceOnUse"
       gradientTransform="matrix(0.92906698,0,0,0.94427575,14.576746,15.854504)"
       x1="-3"
       y1="255.97112"
       x2="387"
       y2="255.97112" />
    <linearGradient
       inkscape:collect="always"
       xlink:href="#linearGradient1190"
       id="linearGradient1357"
       gradientUnits="userSpaceOnUse"
       gradientTransform="matrix(0.92906698,0,0,0.94427575,14.57675,15.85451)"
       x1="-3"
       y1="255.97112"
       x2="387"
       y2="255.97112" />
  </defs>
  <sodipodi:namedview
     id="namedview6"
     pagecolor="#ffffff"
     bordercolor="#666666"
     borderopacity="1.0"
     inkscape:pageshadow="2"
     inkscape:pageopacity="0.0"
     inkscape:pagecheckerboard="0"
     showgrid="false"
     inkscape:zoom="1.5664062"
     inkscape:cx="66.713219"
     inkscape:cy="205.24689"
     inkscape:window-width="1920"
     inkscape:window-height="991"
     inkscape:window-x="-9"
     inkscape:window-y="-9"
     inkscape:window-maximized="1"
     inkscape:current-layer="svg4" />
  <g
     id="g1393">
    <g
       id="g1383">
      <g
         id="g1277">
        <path
           fill="currentColor"
           d="M 174.62526,489.56932 C 39.633682,290.66803 14.576746,270.25467 14.576746,197.15545 c 0,-100.130055 79.863526,-181.300943 178.380864,-181.300943 98.51733,0 178.38086,81.170888 178.38086,181.300943 0,73.09922 -25.05694,93.51258 -160.04852,292.41387 -8.85865,13.00646 -27.80697,13.00552 -36.66469,0 z m 18.33235,-216.87181 c 41.04896,0 74.32535,-33.82112 74.32535,-75.54206 0,-41.72093 -33.27639,-75.54206 -74.32535,-75.54206 -41.04897,0 -74.32536,33.82113 -74.32536,75.54206 0,41.72094 33.27639,75.54206 74.32536,75.54206 z"
           id="path2"
           style="fill:url(#linearGradient1192);fill-opacity:1;stroke:#0089ff;stroke-width:25;stroke-miterlimit:4;stroke-dasharray:none;stroke-opacity:1" />
        <path
           fill="currentColor"
           d="M 174.62526,489.56932 C 39.63368,290.66803 14.57675,270.25467 14.57675,197.15545 c 0,-100.130054 79.86352,-181.300942 178.38086,-181.300942 98.51733,0 178.38086,81.170888 178.38086,181.300942 0,73.09922 -25.05694,93.51258 -160.04852,292.41387 -8.85865,13.00646 -27.80697,13.00552 -36.66469,0 z m 18.33235,-216.87181 c 41.04896,0 74.32535,-33.82112 74.32535,-75.54206 0,-41.72093 -33.27639,-75.54206 -74.32535,-75.54206 -41.04897,0 -74.32536,33.82113 -74.32536,75.54206 0,41.72094 33.27639,75.54206 74.32536,75.54206 z"
           id="path2-1"
           style="fill:url(#linearGradient1250);fill-opacity:1;stroke:#0089ff;stroke-width:25;stroke-miterlimit:4;stroke-dasharray:none;stroke-opacity:1" />
        <path
           fill="currentColor"
           d="M 174.62526,489.56932 C 39.63368,290.66803 14.57675,270.25467 14.57675,197.15545 c 0,-100.130057 79.86352,-181.300945 178.38086,-181.300945 98.51733,0 178.38086,81.170888 178.38086,181.300945 0,73.09922 -25.05694,93.51258 -160.04852,292.41387 -8.85865,13.00646 -27.80697,13.00552 -36.66469,0 z m 18.33235,-216.87181 c 41.04896,0 74.32535,-33.82112 74.32535,-75.54206 0,-41.72093 -33.27639,-75.54206 -74.32535,-75.54206 -41.04897,0 -74.32536,33.82113 -74.32536,75.54206 0,41.72094 33.27639,75.54206 74.32536,75.54206 z"
           id="path2-6"
           style="fill:url(#linearGradient1271);fill-opacity:1;stroke:#0089ff;stroke-width:25;stroke-miterlimit:4;stroke-dasharray:none;stroke-opacity:1" />
      </g>
      <path
         fill="currentColor"
         d="M 174.62526,489.56932 C 39.63368,290.66803 14.57675,270.25467 14.57675,197.15545 c 0,-100.13006 79.86352,-181.30094 178.38086,-181.30094 98.51733,0 178.38086,81.17088 178.38086,181.30094 0,73.09922 -25.05694,93.51258 -160.04852,292.41387 -8.85865,13.00646 -27.80697,13.00552 -36.66469,0 z m 18.33235,-216.87181 c 41.04896,0 74.32535,-33.82112 74.32535,-75.54206 0,-41.72093 -33.27639,-75.54206 -74.32535,-75.54206 -41.04897,0 -74.32536,33.82113 -74.32536,75.54206 0,41.72094 33.27639,75.54206 74.32536,75.54206 z"
         id="path2-9"
         style="fill:url(#linearGradient1315);fill-opacity:1;stroke:#0089ff;stroke-width:25;stroke-miterlimit:4;stroke-dasharray:none;stroke-opacity:1" />
      <path
         fill="currentColor"
         d="M 174.62526,489.56932 C 39.633682,290.66803 14.576746,270.25467 14.576746,197.15545 c 0,-100.13006 79.863524,-181.300947 178.380864,-181.300947 98.51733,0 178.38086,81.170887 178.38086,181.300947 0,73.09922 -25.05694,93.51258 -160.04852,292.41387 -8.85865,13.00646 -27.80697,13.00552 -36.66469,0 z m 18.33235,-216.87181 c 41.04896,0 74.32535,-33.82112 74.32535,-75.54206 0,-41.72093 -33.27639,-75.54206 -74.32535,-75.54206 -41.04897,0 -74.32536,33.82113 -74.32536,75.54206 0,41.72094 33.27639,75.54206 74.32536,75.54206 z"
         id="path2-0"
         style="fill:url(#linearGradient1336);fill-opacity:1;stroke:#0089ff;stroke-width:25;stroke-miterlimit:4;stroke-dasharray:none;stroke-opacity:1" />
      <path
         fill="currentColor"
         d="M 174.62526,489.56932 C 39.63368,290.66803 14.57675,270.25467 14.57675,197.15545 c 0,-100.13005 79.86352,-181.300941 178.38086,-181.300941 98.51733,0 178.38086,81.170891 178.38086,181.300941 0,73.09922 -25.05694,93.51258 -160.04852,292.41387 -8.85865,13.00646 -27.80697,13.00552 -36.66469,0 z m 18.33235,-216.87181 c 41.04896,0 74.32535,-33.82112 74.32535,-75.54206 0,-41.72093 -33.27639,-75.54206 -74.32535,-75.54206 -41.04897,0 -74.32536,33.82113 -74.32536,75.54206 0,41.72094 33.27639,75.54206 74.32536,75.54206 z"
         id="path2-19"
         style="fill:url(#linearGradient1357);fill-opacity:1;stroke:#0089ff;stroke-width:25;stroke-miterlimit:4;stroke-dasharray:none;stroke-opacity:1" />
    </g>
  </g>
</svg>
